<svg width="1920" height="1080" viewBox="0 0 1920 1080" fill="none" xmlns="http://www.w3.org/2000/svg">
    
    <defs>
      <linearGradient id="blueStroke" x1="250" x2="776" y1="250" y2="800" gradientUnits="userSpaceOnUse">
        <stop offset="0" stop-color="#34A3FF"/>
        <stop offset="0.5" stop-color="#168BFF"/>
        <stop offset="1" stop-color="#006DFF"/>
      </linearGradient>
      <linearGradient id="blueFill" x1="450" x2="620" y1="500" y2="650" gradientUnits="userSpaceOnUse">
        <stop offset="0" stop-color="#34A3FF"/>
        <stop offset="1" stop-color="#006DFF"/>
      </linearGradient>
      <radialGradient id="iconPanel" cx="32%" cy="15%" r="96%">
        <stop offset="0" stop-color="#101A30"/>
        <stop offset="0.55" stop-color="#071021"/>
        <stop offset="1" stop-color="#02050B"/>
      </radialGradient>
      <radialGradient id="innerGlow" cx="50%" cy="42%" r="54%">
        <stop offset="0" stop-color="#13213C" stop-opacity="0.9"/>
        <stop offset="1" stop-color="#02050B" stop-opacity="0"/>
      </radialGradient>
      <filter id="softGlow" x="-40%" y="-40%" width="180%" height="180%" color-interpolation-filters="sRGB">
        <feDropShadow dx="0" dy="0" stdDeviation="18" flood-color="#168BFF" flood-opacity="0.55"/>
        <feDropShadow dx="0" dy="18" stdDeviation="18" flood-color="#001D4D" flood-opacity="0.55"/>
      </filter>
      <filter id="wordGlow" x="-20%" y="-35%" width="140%" height="170%" color-interpolation-filters="sRGB">
        <feDropShadow dx="0" dy="0" stdDeviation="12" flood-color="#168BFF" flood-opacity="0.44"/>
        <feDropShadow dx="0" dy="12" stdDeviation="18" flood-color="#000000" flood-opacity="0.7"/>
      </filter>
      <linearGradient id="wordBlue" x1="0" x2="1">
        <stop offset="0" stop-color="#0B72FF"/>
        <stop offset="0.55" stop-color="#168BFF"/>
        <stop offset="1" stop-color="#34A3FF"/>
      </linearGradient>
      <radialGradient id="deepBackdrop" cx="50%" cy="25%" r="80%">
        <stop offset="0" stop-color="#08152C"/>
        <stop offset="0.55" stop-color="#030A17"/>
        <stop offset="1" stop-color="#02050B"/>
      </radialGradient>
      <linearGradient id="streakBlue" x1="0" x2="1">
        <stop offset="0" stop-color="#003B8E" stop-opacity="0"/>
        <stop offset="0.22" stop-color="#0E8BFF" stop-opacity="0.75"/>
        <stop offset="0.5" stop-color="#35A9FF" stop-opacity="0.28"/>
        <stop offset="0.8" stop-color="#006DFF" stop-opacity="0.7"/>
        <stop offset="1" stop-color="#003B8E" stop-opacity="0"/>
      </linearGradient>
    </defs>
  
    
    <rect width="1920" height="1080" fill="url(#deepBackdrop)"/>
    <rect width="1920" height="1080" fill="#01040A" opacity="0.2"/>
    <path d="M-153.6 562C384 652,614.4 742,1036.8000000000002 592C1382.3999999999999 472,1651.2 442,2073.6000000000004 382"
      fill="none" stroke="url(#streakBlue)" stroke-width="10.799999999999999" opacity="0.82"/>
    <path d="M-76.8 606C422.4 678,691.1999999999999 812,1094.3999999999999 694C1459.2 586,1689.6 552,2035.2 488"
      fill="none" stroke="#077CFF" stroke-width="4.2" opacity="0.58"/>
    <path d="M-57.599999999999994 522C480 602,691.1999999999999 682,1036.8000000000002 574C1401.6 468,1670.4 432,2016 354"
      fill="none" stroke="#55B6FF" stroke-width="2.4" opacity="0.38"/>
    <path d="M-38.4 570C460.79999999999995 640,672 720,1056 604C1382.3999999999999 500,1651.2 457,2035.2 404"
      fill="none" stroke="#0B4DBA" stroke-width="21.599999999999998" opacity="0.16"/>
  
    <g transform="translate(520 290) scale(0.34)">
      
    <g transform="scale(1)" filter="url(#softGlow)" opacity="1">
      
      <path d="M398 300C430 267 471 249 512 249C553 249 594 267 626 300"
        fill="none" stroke="url(#blueStroke)" stroke-width="42" stroke-linecap="round"/>
      <path d="M446 354C464 336 488 326 512 326C536 326 560 336 578 354"
        fill="none" stroke="url(#blueStroke)" stroke-width="35" stroke-linecap="round"/>
      <circle cx="512" cy="397" r="24" fill="url(#blueFill)"/>
      <rect x="248" y="440" width="528" height="286" rx="76"
        fill="#050B17" fill-opacity="0.42"
        stroke="url(#blueStroke)" stroke-width="43"/>
      <path d="M463 508C463 489 484 477 501 487L610 552C627 562 627 587 610 597L501 662C484 672 463 660 463 641Z"
        fill="url(#blueFill)"/>
      <rect x="431" y="772" width="162" height="34" rx="17" fill="url(#blueFill)"/>
    </g>
  
    </g>
    <rect x="915" y="360" width="2" height="360" fill="#5F6C86" opacity="0.72"/>
    <text x="990" y="540"
      font-family="Inter, Avenir Next, Helvetica Neue, Arial, sans-serif"
      font-size="138" font-weight="850" letter-spacing="0" fill="url(#wordBlue)" filter="url(#wordGlow)">GoTube</text>
    <text x="996" y="635"
      font-family="Inter, Avenir Next, Helvetica Neue, Arial, sans-serif"
      font-size="40" font-weight="450" fill="#F8FBFF">Private YouTube, no recommendations.</text>
  </svg>
